<svg id="Capa_1" enable-background="new 0 0 512 512" height="512" viewBox="0 0 512 512" width="512" xmlns="http://www.w3.org/2000/svg"><g><path d="m429.5 7.5h-30v120l75-45v-30c0-24.853-20.147-45-45-45z" fill="#ffd185"/><path d="m399.5 7.5h-317c-24.853 0-45 20.147-45 45v30l407 45v-75c0-24.853-20.147-45-45-45z" fill="#ffe8c2"/><path d="m399.5 414.5v90h30c16.569 0 30-13.431 30-30v-30z" fill="#ffd185"/><path d="m52.5 444.5v30c0 16.569 13.431 30 30 30h317c16.569 0 30-13.431 30-30v-60z" fill="#ffe8c2"/><path d="m256 67.5v392h202.878l16.244-392z" fill="#c56a40"/><path d="m36.878 67.5 16.244 392h375.756l16.244-392z" fill="#d38451"/><path d="m459.5 67.5c0-8.284-6.716-15-15-15h-407c-8.284 0-15 6.716-15 15s6.716 15 15 15h407c8.284 0 15-6.716 15-15z" fill="#f0b774"/><path d="m474.5 52.5h-30v30h30c8.284 0 15-6.716 15-15s-6.716-15-15-15z" fill="#e29d63"/><path d="m459.5 444.5h-30v30h30c8.284 0 15-6.716 15-15s-6.716-15-15-15z" fill="#e29d63"/><path d="m444.5 459.5c0-8.284-6.716-15-15-15h-377c-8.284 0-15 6.716-15 15s6.716 15 15 15h377c8.284 0 15-6.716 15-15z" fill="#f0b774"/><path d="m161.75 233.5-15 30 15 30c16.569 0 30-13.431 30-30s-13.431-30-30-30z" fill="#ccc"/><path d="m131.75 263.5c0 16.569 13.431 30 30 30v-60c-16.569 0-30 13.431-30 30z" fill="#ebebeb"/><path d="m350.25 233.5-15 30 15 30c16.569 0 30-13.431 30-30s-13.431-30-30-30z" fill="#ccc"/><path d="m320.25 263.5c0 16.569 13.431 30 30 30v-60c-16.569 0-30 13.431-30 30z" fill="#ebebeb"/><path d="m497 67.5c0-9.925-6.462-18.363-15.397-21.345-3.144-25.965-25.303-46.155-52.103-46.155h-347c-26.8 0-48.959 20.19-52.103 46.155-8.935 2.982-15.397 11.42-15.397 21.345 0 9.872 6.393 18.273 15.254 21.296l14.486 349.584c-8.595 3.168-14.74 11.439-14.74 21.12 0 9.984 6.539 18.466 15.557 21.399 3.047 17.638 18.447 31.101 36.943 31.101h347c18.496 0 33.896-13.463 36.943-31.101 9.018-2.933 15.557-11.415 15.557-21.399 0-9.681-6.145-17.952-14.74-21.12l14.485-349.584c8.862-3.023 15.255-11.424 15.255-21.296zm-124.25 369.5v-143.52c9.102-6.848 15-17.737 15-29.98 0-11.735-5.422-22.224-13.888-29.106l75.189-144.394h17.632l-14.378 347zm-22.5 30h-188.5c-4.136 0-7.5-3.364-7.5-7.5v-7.5h203.5v7.5c0 4.136-3.364 7.5-7.5 7.5zm-297.75 0c-4.136 0-7.5-3.364-7.5-7.5s3.364-7.5 7.5-7.5h64.25c4.142 0 7.5-3.358 7.5-7.5s-3.358-7.5-7.5-7.5h-57.054l-14.379-347h17.632l75.189 144.395c-8.466 6.881-13.888 17.37-13.888 29.105 0 12.242 5.898 23.131 15 29.98v166.02c0 2.629.458 5.153 1.29 7.5zm196-407v15h-173.5v-15zm101.75 226c-12.407 0-22.5-10.093-22.5-22.5s10.093-22.5 22.5-22.5 22.5 10.093 22.5 22.5-10.093 22.5-22.5 22.5zm-166 151v-143.52c9.102-6.848 15-17.737 15-29.98 0-11.735-5.422-22.224-13.888-29.105l70.638-135.656 70.638 135.656c-8.466 6.881-13.888 17.37-13.888 29.106 0 12.242 5.898 23.131 15 29.98v143.519zm-22.5-151c-12.407 0-22.5-10.093-22.5-22.5s10.093-22.5 22.5-22.5 22.5 10.093 22.5 22.5-10.093 22.5-22.5 22.5zm0-60c-3.577 0-7.035.514-10.314 1.454l-71.575-137.454h163.777l-71.575 137.454c-3.278-.94-6.736-1.454-10.313-1.454zm-7.5 74.245c2.424.494 4.932.755 7.5.755s5.076-.261 7.5-.755v136.755h-15zm196-74.245c-3.577 0-7.034.514-10.314 1.454l-71.575-137.454h163.777l-71.575 137.454c-3.279-.94-6.736-1.454-10.313-1.454zm-86.75-151v-15h173.5v15zm79.25 362v-136.755c2.424.494 4.932.755 7.5.755s5.076-.261 7.5-.755v136.755zm131.75-362h-22.5v-15h22.5c4.136 0 7.5 3.364 7.5 7.5s-3.364 7.5-7.5 7.5zm-392-60h347c18.11 0 33.261 12.904 36.745 30h-420.49c3.484-17.096 18.635-30 36.745-30zm-45 45h22.5v15h-22.5c-4.136 0-7.5-3.364-7.5-7.5s3.364-7.5 7.5-7.5zm392 437h-347c-9.778 0-18.114-6.271-21.21-15h389.42c-3.096 8.729-11.432 15-21.21 15zm30-30h-88.04c.833-2.347 1.29-4.871 1.29-7.5v-7.5h86.75c4.136 0 7.5 3.364 7.5 7.5s-3.364 7.5-7.5 7.5z"/><circle cx="161.75" cy="263.5" r="7.5"/><circle cx="350.25" cy="263.5" r="7.5"/></g></svg>