<?xml version="1.0" encoding="iso-8859-1"?>
<!-- Generator: Adobe Illustrator 19.0.0, SVG Export Plug-In . SVG Version: 6.00 Build 0)  -->
<svg version="1.1" id="Layer_1" xmlns="http://www.w3.org/2000/svg" xmlns:xlink="http://www.w3.org/1999/xlink" x="0px" y="0px"
	 viewBox="0 0 512.002 512.002" style="enable-background:new 0 0 512.002 512.002;" xml:space="preserve">
<path style="fill:#FF7731;" d="M257.555,393.575c4.37-3.136,8.554-6.647,12.481-10.575c38.946-38.946,38.946-102.091,0-141.038
	s-102.091-38.946-141.038,0c-3.928,3.928-7.439,8.111-10.575,12.481c-26.292,3.381-51.709,15.162-71.903,35.356
	c-48.512,48.512-48.512,127.166,0,175.678s127.166,48.512,175.678,0C242.394,445.285,254.173,419.867,257.555,393.575z"/>
<g>
	<circle style="fill:#8C4F39;" cx="150.029" cy="361.973" r="41.408"/>
	
		<rect x="282.047" y="56.741" transform="matrix(-0.7071 -0.7071 0.7071 -0.7071 386.4676 563.9968)" style="fill:#8C4F39;" width="55.988" height="290.435"/>
</g>
<rect x="406.737" y="23.615" transform="matrix(-0.7071 -0.7071 0.7071 -0.7071 710.0164 429.9789)" style="fill:#FF7731;" width="74.646" height="88.651"/>
<path d="M150.032,310.36c-13.786,0-26.746,5.368-36.492,15.116c-20.121,20.122-20.121,52.863,0,72.984
	c9.748,9.748,22.707,15.116,36.492,15.116s26.746-5.369,36.492-15.115c9.748-9.748,15.116-22.707,15.116-36.493
	c0-13.785-5.37-26.745-15.116-36.492C176.776,315.729,163.817,310.36,150.032,310.36z M172.097,384.035L172.097,384.035
	c-5.894,5.895-13.731,9.141-22.067,9.141s-16.172-3.246-22.067-9.14c-12.168-12.168-12.168-31.966,0-44.134
	c5.894-5.894,13.731-9.141,22.067-9.141s16.172,3.247,22.067,9.141c5.895,5.894,9.142,13.731,9.142,22.067
	S177.993,378.141,172.097,384.035z"/>
<path d="M509.013,55.774L456.227,2.987c-3.982-3.983-10.439-3.983-14.427,0L379.118,65.67c-1.913,1.913-2.988,4.508-2.988,7.213
	c0,2.414,0.861,4.736,2.403,6.568L245.4,212.585c-19.017-8.704-40.562-11.891-61.373-8.94c-23.728,3.36-45.25,14.116-62.24,31.106
	c-3.173,3.174-6.19,6.595-9.001,10.206c-27.978,4.506-53.307,17.46-73.477,37.632c-52.411,52.412-52.411,137.692,0,190.104
	c26.206,26.206,60.63,39.31,95.052,39.31c34.424,0,68.846-13.104,95.053-39.31c20.171-20.172,33.127-45.5,37.633-73.476
	c3.611-2.811,7.031-5.828,10.206-9.002c16.896-16.896,27.635-38.295,31.054-61.881c3.032-20.913-0.134-42.611-8.887-61.734
	l133.132-133.132c1.894,1.598,4.228,2.403,6.567,2.403c2.611,0,5.221-0.997,7.213-2.988l62.683-62.683
	C512.997,66.215,512.997,59.756,509.013,55.774z M262.824,375.788c-3.413,3.413-7.186,6.609-11.214,9.5
	c-2.299,1.649-3.81,4.18-4.171,6.986c-3.24,25.181-14.461,48-32.452,65.992c-44.456,44.457-116.794,44.459-161.252,0
	c-44.458-44.458-44.458-116.795,0-161.253c17.991-17.991,40.81-29.212,65.991-32.451c2.807-0.361,5.337-1.872,6.987-4.171
	c2.891-4.029,6.088-7.802,9.5-11.215c24.962-24.962,61.244-32.707,93.579-20.984l-49.447,49.447c-3.983,3.983-3.983,10.442,0,14.427
	l39.59,39.59c1.992,1.992,4.602,2.988,7.213,2.988s5.221-0.996,7.213-2.988l49.443-49.443
	C295.503,314.545,287.734,350.877,262.824,375.788z M227.148,310.015l-25.164-25.164L392.928,93.907l12.582,12.582l12.581,12.582
	L227.148,310.015z M439.117,111.243l-38.361-38.36l48.258-48.257l38.359,38.36L439.117,111.243z"/>
<path d="M60.578,328.059c1.92,1.636,4.271,2.436,6.609,2.436c2.885,0,5.753-1.217,7.77-3.585c1.386-1.628,2.859-3.223,4.378-4.742
	c3.982-3.984,3.981-10.442-0.002-14.426c-3.985-3.983-10.442-3.981-14.427,0.002c-1.899,1.9-3.744,3.898-5.48,5.936
	C55.774,317.968,56.29,324.406,60.578,328.059z"/>
<path d="M60.456,352.206c1.851-5.321-0.961-11.135-6.281-12.985c-5.325-1.851-11.136,0.962-12.985,6.282
	c-6.083,17.484-7.196,36.299-3.219,54.414c4.087,18.619,13.403,35.616,26.938,49.153c1.992,1.992,4.602,2.988,7.213,2.988
	s5.221-0.996,7.213-2.988c3.983-3.983,3.983-10.442,0-14.427C57.901,413.212,50.492,380.852,60.456,352.206z"/>
<g>
</g>
<g>
</g>
<g>
</g>
<g>
</g>
<g>
</g>
<g>
</g>
<g>
</g>
<g>
</g>
<g>
</g>
<g>
</g>
<g>
</g>
<g>
</g>
<g>
</g>
<g>
</g>
<g>
</g>
</svg>
