<?xml version="1.0" encoding="iso-8859-1"?>
<!-- Generator: Adobe Illustrator 19.0.0, SVG Export Plug-In . SVG Version: 6.00 Build 0)  -->
<svg version="1.1" id="Layer_1" xmlns="http://www.w3.org/2000/svg" xmlns:xlink="http://www.w3.org/1999/xlink" x="0px" y="0px"
	 viewBox="0 0 512 512" style="enable-background:new 0 0 512 512;" xml:space="preserve">
<path style="fill:#E3C000;" d="M298.626,28.844c-117.654,0-213.373,95.719-213.373,213.374
	c0,117.654,95.719,213.373,213.373,213.373C416.281,455.591,512,359.872,512,242.218C512,124.562,416.282,28.844,298.626,28.844z"/>
<path style="fill:#D27E20;" d="M227.554,28.844C102.3,28.844,0.397,130.747,0.397,256.001S102.3,483.156,227.554,483.156
	s227.157-101.903,227.157-227.157S352.808,28.844,227.554,28.844z"/>
<path style="fill:#F7931E;" d="M227.157,28.844C102.123,28.844,0,130.747,0,256.001s102.123,227.156,227.157,227.156V28.844z"/>
<path style="fill:#E3C000;" d="M227.554,84.036c-94.82,0-171.964,77.144-171.964,171.964s77.144,171.964,171.964,171.964
	s171.964-77.144,171.964-171.964S322.376,84.036,227.554,84.036z"/>
<path style="fill:#F7D11E;" d="M227.157,84.036c-94.892,0-171.964,77.144-171.964,171.964s77.072,171.964,171.964,171.964V84.036z"
	/>
<path style="fill:#D27E20;" d="M226.956,233.784c-19.573,0-34.907,18.708-34.907,42.591s15.333,42.591,34.907,42.591
	s34.907-18.708,34.907-42.591S246.529,233.784,226.956,233.784z"/>
<path style="fill:#F7931E;" d="M227.157,233.784c-18.978,0-34.907,18.708-34.907,42.591s15.928,42.591,34.907,42.591V233.784z"/>
<path style="fill:#463C31;" d="M251.353,260.466h-48.459c-10.036,0-18.172-7.826-18.172-17.862s8.136-17.862,18.172-17.862h48.459
	c10.036,0,18.172,7.826,18.172,17.862S261.389,260.466,251.353,260.466z"/>
<path style="fill:#605348;" d="M227.157,260.466h-24.262c-10.036,0-18.172-7.826-18.172-17.862s8.136-17.862,18.172-17.862h24.262
	V260.466z"/>
<g>
</g>
<g>
</g>
<g>
</g>
<g>
</g>
<g>
</g>
<g>
</g>
<g>
</g>
<g>
</g>
<g>
</g>
<g>
</g>
<g>
</g>
<g>
</g>
<g>
</g>
<g>
</g>
<g>
</g>
</svg>
