<?xml version="1.0" encoding="iso-8859-1"?>
<!-- Generator: Adobe Illustrator 19.0.0, SVG Export Plug-In . SVG Version: 6.00 Build 0)  -->
<svg version="1.1" id="Layer_1" xmlns="http://www.w3.org/2000/svg" xmlns:xlink="http://www.w3.org/1999/xlink" x="0px" y="0px"
	 viewBox="0 0 512 512" style="enable-background:new 0 0 512 512;" xml:space="preserve">
<g>
	<g>
		<path d="M256,0C114.843,0,0,114.843,0,256c0,141.157,114.843,256,256,256s256-114.843,256-256C512,114.843,397.157,0,256,0z
			 M256,493.037C125.296,493.037,18.963,386.704,18.963,256C18.963,125.296,125.296,18.963,256,18.963S493.037,125.296,493.037,256
			C493.037,386.704,386.704,493.037,256,493.037z"/>
	</g>
</g>
<g>
	<g>
		<path d="M417.185,246.474H94.815c-5.236,0-9.482,4.267-9.482,9.505c0,94.106,76.56,170.677,170.667,170.677
			s170.667-76.576,170.667-170.683C426.667,250.736,422.421,246.474,417.185,246.474z M256,407.704
			c-38.956,0-74.502-14.79-101.396-39.013c12.466-16.129,50.793-56.266,106.637-28.357c3.306,1.648,7.282,1.236,10.162-1.079
			c1.634-1.295,40.19-30.964,89.911,25.795C334.006,391.431,296.876,407.704,256,407.704z M374.191,350.972
			c-49.831-55.62-94.436-38.336-109.353-29.928c-62.46-27.999-106.899,14.133-123.489,34.127
			c-21.124-24.382-34.64-56.55-36.762-89.735h302.824C405.411,298.622,393.287,327.26,374.191,350.972z"/>
	</g>
</g>
<g>
	<g>
		<path d="M199.111,142.177h-56.889c-5.236,0-9.482,4.245-9.482,9.482s4.245,9.481,9.482,9.481h56.889
			c5.236,0,9.482-4.245,9.482-9.481S204.347,142.177,199.111,142.177z"/>
	</g>
</g>
<g>
	<g>
		<path d="M360.296,142.177h-56.889c-5.236,0-9.482,4.245-9.482,9.482s4.245,9.481,9.482,9.481h56.889
			c5.236,0,9.481-4.245,9.481-9.481S365.532,142.177,360.296,142.177z"/>
	</g>
</g>
<g>
</g>
<g>
</g>
<g>
</g>
<g>
</g>
<g>
</g>
<g>
</g>
<g>
</g>
<g>
</g>
<g>
</g>
<g>
</g>
<g>
</g>
<g>
</g>
<g>
</g>
<g>
</g>
<g>
</g>
</svg>
