<?xml version="1.0" standalone="no"?>
<!DOCTYPE svg PUBLIC "-//W3C//DTD SVG 20010904//EN"
 "http://www.w3.org/TR/2001/REC-SVG-20010904/DTD/svg10.dtd">
<svg version="1.0" xmlns="http://www.w3.org/2000/svg"
 width="1280.000000pt" height="1050.000000pt" viewBox="0 0 1280.000000 1050.000000"
 preserveAspectRatio="xMidYMid meet">
<metadata>
Created by potrace 1.15, written by Peter Selinger 2001-2017
</metadata>
<g transform="translate(0.000000,1050.000000) scale(0.100000,-0.100000)"
fill="#fff" stroke="none">
<path d="M11703 10478 c-11 -13 -44 -61 -73 -108 -84 -135 -164 -230 -194
-230 -12 0 -5 58 19 160 25 108 31 175 16 184 -13 9 -59 -30 -220 -186 -117
-113 -160 -148 -184 -152 -18 -3 -111 -10 -207 -16 -535 -33 -826 -119 -1235
-365 -262 -157 -412 -274 -606 -472 -163 -166 -247 -267 -581 -698 -415 -534
-461 -577 -758 -711 -310 -139 -664 -219 -1185 -266 -221 -20 -845 -17 -1025
5 -312 39 -519 79 -1065 208 -563 133 -751 156 -1175 146 -396 -10 -598 -39
-962 -137 -191 -52 -273 -67 -443 -80 -563 -42 -665 -55 -827 -106 -103 -32
-261 -110 -347 -171 -365 -257 -553 -752 -633 -1658 -17 -198 -17 -2194 0
-2505 20 -356 42 -500 92 -619 l29 -66 11 30 c17 45 27 106 42 260 l13 140 6
-315 c6 -295 18 -433 39 -454 13 -13 27 28 66 199 52 230 52 229 51 10 -1
-259 20 -360 78 -387 30 -14 84 15 103 55 7 15 22 102 33 195 11 92 24 181 29
197 16 59 10 -137 -9 -260 -10 -66 -17 -121 -16 -122 0 -2 19 20 40 48 21 28
55 62 75 74 25 16 44 39 58 72 22 52 85 292 206 788 41 171 87 352 100 403 41
153 46 266 81 1952 22 1040 28 1091 152 1404 125 317 215 444 275 389 34 -31
21 -105 -35 -194 -64 -104 -160 -307 -197 -418 -43 -129 -56 -291 -41 -540 18
-320 57 -494 231 -1026 166 -510 194 -632 187 -815 -10 -267 -122 -507 -376
-810 -206 -245 -218 -267 -231 -432 -12 -154 -27 -572 -40 -1104 l-10 -410
-54 -235 c-100 -430 -115 -534 -87 -587 14 -26 85 -61 175 -87 82 -24 88 -36
84 -191 -4 -153 5 -178 92 -264 105 -105 229 -146 415 -137 197 9 274 42 261
112 -24 126 -247 425 -428 572 -92 76 -108 109 -120 247 -12 127 -4 671 12
858 47 543 379 1189 859 1669 170 170 255 235 272 208 12 -18 5 -60 -43 -254
-52 -211 -60 -331 -28 -437 12 -40 77 -188 145 -328 68 -140 128 -273 134
-295 14 -55 23 -117 80 -536 58 -424 92 -632 126 -777 38 -158 59 -190 166
-253 110 -64 114 -70 232 -383 13 -35 39 -78 62 -102 50 -52 94 -63 295 -71
167 -7 193 0 255 69 27 30 34 44 29 61 -20 66 -176 245 -368 422 -64 59 -124
121 -133 138 -9 17 -44 103 -78 192 -34 88 -95 240 -134 337 -108 269 -141
400 -156 628 -18 250 67 886 176 1325 113 455 280 900 484 1295 53 103 155
217 227 255 33 17 43 18 94 7 102 -21 223 -73 452 -192 465 -243 729 -338
1102 -399 313 -51 573 -69 1650 -116 357 -16 650 -34 661 -41 39 -24 54 -850
25 -1359 -35 -599 -76 -1086 -137 -1620 -22 -192 -42 -406 -46 -476 -7 -156 1
-189 60 -221 67 -38 90 -97 126 -335 14 -91 28 -122 60 -131 14 -4 105 -7 201
-6 190 1 268 14 369 60 l54 24 -24 28 c-13 15 -56 61 -95 102 -266 279 -313
372 -335 652 -15 189 -6 558 16 679 36 204 159 588 181 567 8 -9 33 -224 43
-378 6 -85 17 -306 26 -490 35 -782 45 -853 113 -887 61 -30 84 -81 129 -292
13 -63 29 -122 36 -130 28 -34 98 -53 216 -58 254 -12 441 38 441 117 0 57
-81 139 -301 305 -197 150 -234 198 -293 384 -45 144 -60 257 -60 476 -1 274
27 458 111 740 82 273 141 555 163 776 14 134 22 163 178 660 137 436 174 560
241 823 l41 158 102 107 c156 163 213 248 256 379 55 167 91 405 132 877 58
679 55 660 144 865 85 194 118 294 156 475 81 386 262 1009 337 1158 23 46 36
56 48 38 7 -12 204 -89 450 -176 330 -117 413 -164 579 -324 130 -127 188
-206 227 -311 17 -47 43 -106 57 -133 31 -57 113 -137 142 -137 11 0 46 13 76
30 53 28 60 29 143 24 121 -8 156 11 231 129 30 47 82 126 115 175 34 49 69
114 80 145 l19 57 -23 47 c-13 27 -85 154 -161 283 -330 563 -443 802 -536
1133 -66 237 -96 284 -283 452 -129 117 -171 167 -171 204 0 13 14 51 30 85
56 114 106 373 86 450 -8 32 -16 33 -43 4z"/>
</g>
</svg>
